<?xml version="1.0" standalone="no"?>
<!DOCTYPE svg PUBLIC "-//W3C//DTD SVG 20010904//EN"
 "http://www.w3.org/TR/2001/REC-SVG-20010904/DTD/svg10.dtd">
<svg version="1.0" xmlns="http://www.w3.org/2000/svg"
 width="1200.000000pt" height="1200.000000pt" viewBox="0 0 1200.000000 1200.000000"
 preserveAspectRatio="xMidYMid meet">
<metadata>
Created by potrace 1.14, written by Peter Selinger 2001-2017
</metadata>
<g transform="translate(0.000000,1200.000000) scale(0.100000,-0.100000)"
fill="#000000" stroke="none">
<path d="M3518 9985 c-2 -2 -31 -6 -65 -9 -61 -6 -206 -60 -238 -87 -8 -8 -34
-30 -58 -49 -168 -136 -246 -379 -192 -595 18 -70 60 -166 93 -207 90 -116
232 -209 362 -236 76 -15 232 -7 301 16 69 24 166 78 216 122 38 33 104 115
131 163 69 122 89 336 43 467 -84 239 -287 396 -533 413 -32 2 -59 3 -60 2z
m161 -297 c138 -67 211 -202 189 -347 -17 -107 -61 -175 -149 -231 -48 -31
-61 -36 -137 -49 -60 -11 -202 18 -202 41 0 4 -6 8 -13 8 -7 0 -32 19 -55 42
-151 149 -127 393 51 511 29 19 72 40 97 45 64 15 166 6 219 -20z"/>
<path d="M8385 9979 c-248 -30 -449 -210 -509 -459 -21 -86 -15 -235 12 -311
69 -195 194 -322 378 -385 66 -23 97 -28 184 -28 118 0 147 4 230 38 124 51
247 161 304 273 50 101 69 180 68 291 -2 154 -58 285 -172 404 -135 139 -304
199 -495 177z m170 -274 c33 -9 91 -43 131 -78 24 -20 75 -98 81 -122 1 -5 7
-30 13 -55 33 -134 -52 -305 -179 -361 -136 -60 -283 -31 -384 75 -200 213
-39 565 253 551 30 -1 69 -6 85 -10z"/>
<path d="M4530 9513 c-14 -3 -48 -11 -77 -19 l-52 -15 3 -82 c1 -45 -5 -119
-14 -164 l-16 -83 20 15 c133 97 244 111 377 47 65 -30 96 -57 298 -259 124
-124 241 -236 260 -249 59 -42 146 -26 182 32 26 42 27 105 3 142 -37 57 -480
485 -546 528 -56 37 -151 86 -161 83 -1 -1 -22 4 -47 11 -45 12 -185 20 -230
13z"/>
<path d="M7242 9500 c-166 -43 -234 -93 -513 -372 -127 -128 -238 -243 -246
-256 -20 -30 -18 -95 3 -132 19 -31 68 -60 102 -60 66 0 81 12 315 244 265
263 261 260 336 295 48 22 69 26 146 25 96 0 146 -17 210 -69 l31 -24 -16 82
c-9 45 -15 119 -14 164 l2 83 -53 15 c-84 25 -217 27 -303 5z"/>
<path d="M3746 8550 c-50 -15 -129 -24 -214 -23 l-82 0 -16 -51 c-51 -169 -8
-386 107 -542 57 -77 496 -513 533 -529 114 -49 224 92 153 196 -13 19 -125
136 -249 260 -231 231 -261 270 -288 369 -29 105 1 229 71 301 30 31 30 32
-15 19z"/>
<path d="M8235 8536 c41 -56 57 -85 72 -136 32 -107 13 -201 -62 -305 -24 -33
-139 -154 -255 -270 -117 -115 -218 -222 -226 -237 -8 -15 -14 -43 -14 -63 0
-100 116 -163 199 -108 14 9 129 120 255 247 283 284 335 360 371 532 19 90
14 198 -13 289 l-12 40 -107 3 c-60 1 -134 8 -166 16 l-58 14 16 -22z"/>
<path d="M5887 7524 c-1 -1 -29 -5 -62 -9 -198 -21 -457 -107 -592 -197 -23
-15 -44 -28 -48 -28 -7 0 -71 -47 -93 -67 -7 -7 -17 -13 -21 -13 -8 0 -17 -8
-112 -95 -50 -47 -101 -102 -156 -168 -20 -24 -70 -98 -129 -192 -71 -113
-158 -359 -178 -500 -19 -134 -22 -170 -20 -265 1 -116 10 -211 26 -280 5 -25
12 -55 14 -68 3 -13 16 -58 29 -100 13 -42 22 -78 20 -80 -3 -4 -1288 -6
-1382 -3 -26 1 -35 37 -37 133 -1 60 -9 75 -22 36 -8 -28 -88 -153 -103 -162
-6 -4 -40 -8 -76 -9 -36 -1 -65 -3 -65 -5 0 -1 12 -20 26 -42 14 -21 23 -43
20 -49 -8 -12 45 -122 82 -171 37 -49 51 -64 95 -99 42 -33 49 -43 240 -323
l127 -188 -83 -122 c-45 -68 -84 -125 -87 -128 -3 -3 -70 -102 -150 -220 -185
-276 -204 -304 -210 -310 -7 -7 -60 -89 -60 -93 0 -2 117 -4 261 -4 143 -1
262 -3 264 -5 1 -2 5 -31 9 -64 3 -34 13 -84 21 -111 l15 -49 97 -1 c54 0 128
-7 164 -15 l67 -14 -22 30 c-11 17 -24 33 -28 36 -12 9 -37 84 -46 138 -9 49
-8 52 12 53 28 1 4608 1 4622 0 27 -2 -23 -169 -65 -216 -34 -38 -34 -44 1
-34 44 12 148 23 231 23 l67 -1 11 36 c6 20 13 50 15 66 2 17 8 52 12 79 l7
49 377 0 377 -1 -112 165 c-62 91 -117 172 -122 181 -17 28 -62 94 -105 154
-22 32 -40 62 -40 67 0 5 -4 11 -9 13 -4 2 -52 70 -107 151 -72 109 -96 152
-89 162 28 42 314 464 369 545 35 52 69 100 75 107 6 7 11 14 11 17 0 2 29 47
65 99 l65 95 -182 -1 -181 0 -28 33 c-16 18 -44 64 -64 102 -20 37 -37 68 -38
68 -1 0 -3 -29 -3 -64 -2 -94 -12 -136 -32 -137 -23 0 -1328 0 -1371 0 -28 1
-31 3 -22 15 22 27 76 239 89 356 14 116 6 325 -17 446 -29 151 -47 206 -118
362 -18 41 -33 76 -33 79 0 8 -147 226 -175 258 -99 116 -269 263 -375 324
-77 45 -160 89 -160 85 0 -2 -10 2 -22 10 -63 38 -256 94 -403 117 -66 10
-321 20 -328 13z m303 -279 c128 -22 182 -36 279 -76 437 -179 719 -552 786
-1039 7 -55 7 -224 0 -265 -3 -16 -10 -57 -16 -90 -18 -104 -63 -244 -95 -299
-11 -18 -28 -19 -350 -18 -187 0 -344 1 -351 1 -8 1 -4 18 12 49 61 122 48
272 -33 380 -36 49 -55 65 -127 108 -55 33 -100 50 -310 114 -106 32 -149 57
-179 103 -23 35 -27 49 -22 86 11 83 73 122 201 127 137 5 231 -49 283 -162
42 -90 129 -121 203 -71 62 41 74 100 39 182 -64 150 -201 266 -352 299 -27 6
-27 8 -27 80 1 83 -16 125 -58 153 -36 24 -104 25 -142 2 -44 -26 -59 -65 -63
-154 -3 -77 -4 -78 -30 -82 -99 -13 -233 -114 -280 -212 -72 -148 -50 -315 58
-440 61 -70 140 -115 287 -161 72 -24 155 -50 182 -59 144 -47 185 -127 105
-201 -77 -71 -207 -79 -326 -20 -63 31 -93 62 -137 141 -29 52 -78 89 -119 89
-75 0 -138 -59 -138 -130 0 -39 59 -163 91 -193 11 -11 18 -21 15 -24 -10 -10
-706 -7 -715 3 -19 21 -73 178 -92 265 -23 105 -34 353 -20 429 5 25 12 61 15
80 26 168 121 379 239 530 198 253 483 423 794 474 102 17 298 17 393 1z"/>
<path d="M3577 7063 c-1 -1 -31 -3 -67 -4 -54 -2 -88 -8 -172 -28 -48 -11
-167 -69 -213 -104 -75 -57 -159 -162 -189 -236 l-17 -44 43 -45 c24 -25 49
-52 56 -60 24 -27 70 -98 96 -149 14 -29 28 -53 29 -53 2 0 3 21 2 48 -3 159
58 282 170 348 91 53 122 56 501 59 306 2 355 5 386 19 103 49 82 221 -29 242
-30 6 -591 13 -596 7z"/>
<path d="M7860 7059 c-30 -3 -64 -12 -76 -19 -31 -19 -54 -68 -54 -115 0 -56
44 -111 96 -121 19 -3 184 -7 367 -9 214 -1 349 -6 381 -14 176 -43 277 -178
279 -372 1 -61 10 -76 23 -36 13 41 88 151 144 210 30 33 56 63 58 68 11 28
-122 217 -179 257 -13 9 -30 22 -38 30 -30 29 -175 92 -252 108 -81 17 -625
26 -749 13z"/>
<path d="M2240 6588 c-19 -5 -46 -11 -60 -14 -72 -15 -176 -79 -250 -153 -149
-148 -207 -339 -165 -541 46 -223 224 -408 443 -460 79 -18 183 -20 259 -4 71
14 178 58 201 81 7 7 17 13 21 13 11 0 113 100 142 140 104 140 140 345 90
510 -24 78 -60 155 -89 192 -38 48 -145 148 -165 154 -12 4 -24 10 -27 14 -8
11 -132 58 -175 65 -61 11 -186 12 -225 3z m218 -277 c59 -22 69 -28 125 -80
75 -70 112 -198 87 -303 -81 -344 -572 -338 -645 7 -11 55 -11 75 0 129 19 92
56 146 142 213 67 52 200 67 291 34z"/>
<path d="M9535 6585 c-225 -48 -404 -216 -460 -434 -22 -87 -25 -160 -8 -256
37 -218 195 -398 410 -465 128 -40 304 -29 416 26 26 13 47 21 47 18 0 -3 26
15 58 39 125 97 203 213 238 358 4 13 8 66 9 118 7 231 -105 420 -320 541 -98
55 -272 80 -390 55z m218 -271 c262 -86 312 -435 83 -587 -97 -65 -232 -74
-332 -23 -139 71 -210 235 -169 391 25 95 118 191 215 221 57 17 147 17 203
-2z"/>
<path d="M5351 3310 c-18 -9 -139 -122 -269 -251 -209 -207 -246 -239 -309
-270 -121 -60 -240 -51 -351 25 l-48 33 16 -81 c9 -44 15 -118 14 -163 l-2
-82 33 -11 c74 -24 207 -34 273 -20 20 5 48 11 62 13 67 13 179 69 245 122 66
54 478 465 501 500 33 50 12 143 -40 175 -38 24 -91 28 -125 10z"/>
<path d="M6529 3303 c-56 -34 -80 -126 -45 -176 21 -32 443 -456 496 -499 43
-35 148 -95 180 -104 8 -2 40 -11 70 -20 92 -26 244 -24 333 5 l33 11 2 103
c0 56 7 130 15 164 13 58 12 61 -4 52 -10 -5 -22 -15 -26 -22 -4 -7 -32 -23
-62 -37 -45 -21 -70 -25 -140 -25 -78 0 -93 3 -156 34 -62 30 -99 63 -309 273
-132 132 -250 244 -263 249 -37 14 -95 10 -124 -8z"/>
<path d="M3412 3195 c-35 -8 -96 -30 -136 -51 -323 -161 -429 -567 -226 -865
41 -60 53 -73 116 -129 117 -103 319 -155 484 -125 53 10 145 44 197 73 108
60 221 204 264 334 42 128 32 306 -24 428 -35 76 -110 170 -186 232 -31 26
-129 74 -191 93 -72 22 -218 27 -298 10z m273 -284 c108 -48 187 -172 187
-296 0 -95 -44 -200 -104 -243 -9 -7 -23 -18 -30 -25 -7 -7 -38 -23 -68 -36
-81 -36 -185 -34 -264 4 -214 102 -257 382 -83 546 86 82 242 103 362 50z"/>
<path d="M8378 3205 c-2 -2 -20 -6 -42 -9 -46 -7 -165 -53 -187 -72 -8 -8 -19
-14 -23 -14 -12 0 -104 -86 -141 -132 -32 -40 -73 -113 -88 -158 -2 -8 -6 -18
-7 -22 -35 -100 -35 -267 0 -368 108 -316 431 -483 746 -385 177 55 328 200
385 370 47 141 42 310 -13 430 -102 226 -311 363 -552 363 -41 0 -76 -1 -78
-3z m192 -282 c124 -43 220 -178 220 -308 0 -52 -24 -142 -44 -164 -9 -10 -16
-21 -16 -26 0 -4 -19 -26 -42 -48 -147 -140 -385 -118 -500 47 -138 198 -22
477 214 514 63 10 107 6 168 -15z"/>
</g>
</svg>
